HIERARCHY
ROOT Hips
{
 OFFSET 0.000000 0.000000 0.000000
 CHANNELS 6 Xposition Yposition Zposition Yrotation Xrotation Zrotation
 JOINT Chest
 {
  OFFSET 0.000000 9.585900 0.002600
  CHANNELS 3 Yrotation Xrotation Zrotation
  JOINT Chest2
  {
   OFFSET 0.000000 9.601200 -0.005300
   CHANNELS 3 Yrotation Xrotation Zrotation
   JOINT Chest3
   {
    OFFSET 0.000000 9.561800 0.000000
    CHANNELS 3 Yrotation Xrotation Zrotation
    JOINT Chest4
    {
     OFFSET 0.000000 9.552100 0.000000
     CHANNELS 3 Yrotation Xrotation Zrotation
     JOINT Neck
     {
      OFFSET 0.000000 14.453000 0.000000
      CHANNELS 3 Yrotation Xrotation Zrotation
      JOINT Head
      {
       OFFSET 0.000000 8.936500 -0.011300
       CHANNELS 3 Yrotation Xrotation Zrotation
       End Site
       {
        OFFSET 0.000000 17.073600 -0.006000
       }
      }
     }
     JOINT RightCollar
     {
      OFFSET -2.921100 9.558500 0.000000
      CHANNELS 3 Yrotation Xrotation Zrotation
      JOINT RightShoulder
      {
       OFFSET -13.519700 0.000000 0.000000
       CHANNELS 3 Yrotation Xrotation Zrotation
       JOINT RightElbow
       {
        OFFSET 0.000000 -29.696600 0.000000
        CHANNELS 3 Yrotation Xrotation Zrotation
        JOINT RightWrist
        {
         OFFSET 0.000000 -24.004700 0.000000
         CHANNELS 3 Yrotation Xrotation Zrotation
         End Site
         {
          OFFSET 0.000000 -17.728500 0.000000
         }
        }
       }
      }
     }
     JOINT LeftCollar
     {
      OFFSET 2.921100 9.558500 0.000000
      CHANNELS 3 Yrotation Xrotation Zrotation
      JOINT LeftShoulder
      {
       OFFSET 13.519700 0.000000 0.000000
       CHANNELS 3 Yrotation Xrotation Zrotation
       JOINT LeftElbow
       {
        OFFSET 0.000000 -29.696600 0.000000
        CHANNELS 3 Yrotation Xrotation Zrotation
        JOINT LeftWrist
        {
         OFFSET 0.000000 -24.004700 0.000000
         CHANNELS 3 Yrotation Xrotation Zrotation
         End Site
         {
          OFFSET 0.000000 -17.728500 0.000000
         }
        }
       }
      }
     }
    }
   }
  }
 }
 JOINT RightHip
 {
  OFFSET -7.771700 -0.012900 -0.001300
  CHANNELS 3 Yrotation Xrotation Zrotation
  JOINT RightKnee
  {
   OFFSET 0.000000 -40.869800 0.001200
   CHANNELS 3 Yrotation Xrotation Zrotation
   JOINT RightAnkle
   {
    OFFSET 0.000000 -39.717900 0.002100
    CHANNELS 3 Yrotation Xrotation Zrotation
    JOINT RightToe
    {
     OFFSET 0.000000 -4.965400 11.033500
     CHANNELS 3 Yrotation Xrotation Zrotation
     End Site
     {
      OFFSET 0.000000 -1.423100 5.872300
     }
    }
   }
  }
 }
 JOINT LeftHip
 {
  OFFSET 7.771700 -0.012900 -0.001300
  CHANNELS 3 Yrotation Xrotation Zrotation
  JOINT LeftKnee
  {
   OFFSET 0.000000 -40.869800 0.001200
   CHANNELS 3 Yrotation Xrotation Zrotation
   JOINT LeftAnkle
   {
    OFFSET 0.000000 -39.717900 0.002100
    CHANNELS 3 Yrotation Xrotation Zrotation
    JOINT LeftToe
    {
     OFFSET 0.000000 -4.965400 11.033500
     CHANNELS 3 Yrotation Xrotation Zrotation
     End Site
     {
      OFFSET 0.000000 -1.423100 5.872300
     }
    }
   }
  }
 }
}
MOTION
Frames: 9
Frame Time: 0.008333
0.000000 85.388000 0.000000 0.000000 -5.767877 0.000000 0.000000 11.653817 0.000000 0.000000 -5.885947 0.000000 0.000000 -0.000000 0.000000 0.000000 -0.000000 0.000000 0.000000 12.528835 0.000000 0.000000 0.711642 0.000000 0.000000 -0.000000 0.000000 0.000000 0.000000 -90.000000 0.000000 -2.309062 0.000000 0.000000 2.309062 0.000000 0.000000 -0.000000 0.000000 0.000000 -0.000000 90.000000 0.000000 -2.309062 0.000000 0.000000 2.309062 0.000000 0.000000 8.520406 0.000000 0.000000 1.905762 0.000000 -0.000000 -4.658285 0.000000 0.000000 -0.000000 0.000000 0.000000 8.520406 0.000000 0.000000 1.905762 0.000000 -0.000000 -4.658285 0.000000 0.000000 -0.000000 0.000000
-231.873904 57.609611 22.922622 174.226160 -48.855328 -3.130295 4.500645 22.404960 3.807928 2.361341 12.858300 1.904242 2.984142 16.026867 2.540153 2.349335 12.849991 1.892897 -1.819040 17.731708 1.899082 -3.961092 -2.771382 4.030065 2.789131 1.742095 0.107751 3.454948 -18.049219 -11.496845 -25.949969 -51.457515 71.638980 11.341096 -9.808096 -38.893540 -9.360841 -1.826063 0.901715 4.612470 -30.050321 -2.222934 115.610318 -63.554905 -140.184285 -0.799235 3.464791 25.271242 6.763947 -23.131797 -0.566863 -42.572825 72.987666 -46.228004 3.706473 -14.047431 12.428015 -0.007632 0.002543 -0.013257 -9.327025 -20.747719 9.490938 55.535249 81.842000 57.674680 0.024294 -18.301201 -22.467294 0.015184 0.021828 0.014305
-231.872322 57.616859 22.922304 174.208545 -48.921874 -3.132050 4.516630 22.463835 3.830903 2.303515 12.831711 1.952472 2.993128 16.056911 2.519493 2.352767 12.859433 1.868399 -1.857933 17.783953 1.929691 -4.024473 -2.672807 4.023585 2.779118 1.754295 0.116084 3.482786 -18.095184 -11.513892 -25.922435 -51.435952 71.609140 11.363977 -9.840569 -38.844807 -9.378249 -1.888774 0.952654 4.381010 -30.437041 -2.305519 112.416904 -62.558324 -137.932878 -0.065032 3.589619 25.443554 6.774371 -23.063057 -0.546129 -42.548798 72.971866 -46.189561 3.714755 -14.033586 12.421294 -0.004886 -0.000158 -0.013225 -9.313821 -20.676984 9.496410 55.501311 81.840532 57.638277 0.032709 -18.296020 -22.474067 0.017253 0.018930 0.018087
-231.873205 57.618269 22.927552 174.203655 -48.942168 -3.132729 4.495949 22.459984 3.844234 2.294862 12.843398 1.963670 2.980007 16.066397 2.532572 2.319085 12.864758 1.928872 -1.889273 17.832527 1.862684 -4.085472 -2.583762 4.016345 2.797165 1.788794 0.035433 3.460193 -18.175639 -11.497874 -25.874204 -51.422611 71.597514 11.387522 -9.847412 -38.780808 -9.352536 -1.952934 0.905810 4.134860 -30.802643 -2.370825 109.159760 -61.419125 -135.728990 0.675741 3.678716 25.627244 6.779770 -23.041263 -0.542861 -42.521822 72.964874 -46.151439 3.719728 -14.028075 12.415167 -0.014015 0.001181 -0.013644 -9.319887 -20.653810 9.497186 55.502353 81.835342 57.629634 0.035574 -18.295459 -22.475234 0.008639 0.021022 0.015833
-231.873898 57.619576 22.933499 174.198906 -48.960676 -3.135267 4.477617 22.458545 3.860822 2.293041 12.855111 1.967165 2.977259 16.074504 2.530593 2.306927 12.867552 1.951491 -1.922568 17.873409 1.872735 -4.142131 -2.503321 4.009912 2.758429 1.858316 0.073150 3.506455 -18.254611 -11.572441 -26.022766 -51.424165 71.754949 11.431885 -9.803248 -38.705304 -9.350056 -1.990352 0.909991 3.853627 -31.154662 -2.397124 105.989641 -60.180108 -133.672252 1.388832 3.739671 25.813663 6.781616 -23.022892 -0.536226 -42.493675 72.958745 -46.113223 3.723576 -14.020042 12.406464 -0.004900 0.000287 -0.011559 -9.325559 -20.633624 9.499329 55.516055 81.830718 57.635713 0.041210 -18.295157 -22.477576 0.000247 0.021486 0.010750
-231.873192 57.624215 22.937114 174.192254 -49.003510 -3.143015 4.441788 22.468415 3.891994 2.322662 12.887743 1.942275 2.966880 16.074451 2.546108 2.283760 12.865538 2.005839 -1.938644 17.897360 1.812336 -4.206776 -2.407879 4.039800 2.770858 1.889138 0.007244 3.505612 -18.279900 -11.584521 -26.169897 -51.421285 71.907587 11.471752 -9.793115 -38.634757 -9.337463 -2.018623 0.876767 3.557111 -31.479203 -2.403733 103.011764 -58.883187 -131.825722 2.037130 3.793416 25.989881 6.782450 -22.980346 -0.517651 -42.463300 72.952908 -46.073822 3.722676 -14.007820 12.398172 0.001154 -0.004599 -0.008787 -9.332179 -20.587030 9.505510 55.458564 81.835061 57.572619 0.041513 -18.292647 -22.482267 0.007299 0.018541 0.012917
-231.874267 57.624990 22.943990 174.191083 -49.013642 -3.145559 4.430908 22.471048 3.899024 2.303537 12.883991 1.959454 2.956176 16.081289 2.559188 2.273666 12.868832 2.031249 -1.972430 17.947151 1.803878 -4.243814 -2.342516 4.016388 2.765688 1.944849 -0.015794 3.529794 -18.325882 -11.639943 -26.291137 -51.414479 72.040851 11.503111 -9.807640 -38.563652 -9.329217 -2.034513 0.847355 3.261433 -31.776210 -2.399376 100.304190 -57.589735 -130.241055 2.611960 3.843324 26.150175 6.783072 -22.965769 -0.515244 -42.420955 72.945538 -46.022980 3.715373 -13.999298 12.393827 0.002865 -0.004430 -0.004368 -9.346481 -20.575237 9.507093 55.455119 81.828656 57.560081 0.040523 -18.288436 -22.485234 0.009995 0.019329 0.011899
-231.872985 57.626905 22.950315 174.170542 -49.030502 -3.146122 4.438073 22.479113 3.920458 2.285715 12.880241 1.977899 2.927851 16.081618 2.613541 2.280405 12.884243 1.988220 -2.003858 17.994875 1.816624 -4.281288 -2.278266 3.998108 2.752534 1.996099 -0.016512 3.524293 -18.375143 -11.681871 -26.389548 -51.405156 72.175734 11.536687 -9.824594 -38.495601 -9.335210 -2.042488 0.842162 2.987347 -32.039959 -2.391864 97.934627 -56.371040 -128.946057 3.117235 3.886750 26.277869 6.791337 -22.949518 -0.502920 -42.349611 72.930220 -45.928912 3.719669 -13.973374 12.388622 0.008182 -0.005849 -0.015364 -9.356186 -20.553198 9.521999 55.378715 81.822505 57.472111 0.048576 -18.275217 -22.489235 0.008170 0.018712 0.008952
-231.871093 57.630190 22.955561 174.151899 -49.055090 -3.149776 4.435506 22.491611 3.946210 2.264050 12.879061 2.008929 2.942579 16.096688 2.578837 2.276938 12.887007 2.018777 -2.028471 18.030778 1.817121 -4.325116 -2.210366 4.005418 2.736589 2.041571 -0.025299 3.495585 -18.416962 -11.700448 -26.483916 -51.398935 72.317273 11.573713 -9.841857 -38.428274 -9.344105 -2.050251 0.829878 2.734555 -32.265031 -2.370118 95.987001 -55.286182 -127.961718 3.542829 3.947611 26.354385 6.796103 -22.925784 -0.483024 -42.314993 72.921094 -45.882830 3.723657 -13.961075 12.380750 0.009341 -0.007180 -0.013726 -9.364180 -20.523394 9.536967 55.351054 81.819495 57.436749 0.056301 -18.268283 -22.496301 0.003903 0.017112 0.007075
